<?xml version="1.0" encoding="UTF-8" standalone="no"?>
<svg
   width="700pt"
   height="700pt"
   version="1.1"
   viewBox="0 0 700 700"
   id="svg161"
   xmlns="http://www.w3.org/2000/svg"
   xmlns:svg="http://www.w3.org/2000/svg">
  <defs
     id="defs71" />
  <g
     id="g368"
     transform="matrix(1.294245,0,0,1.294245,-102.98575,-12.38534)"
     style="fill:#008080">
    <path
       d="m 270.29631,27.988 c -0.45312,0 -0.90234,0.07422 -1.332,0.21875 l -31.348,10.48 -19.773,-3.4453 c -1.4844,-0.26172 -2.9922,0.28906 -3.9609,1.4414 l -7.5469,8.9688 -16.746,11.836 c -0.19922,0.13672 -0.38281,0.28906 -0.55859,0.45703 l -4.3398,4.3438 c -0.37109,0.375 -0.66797,0.81641 -0.875,1.3008 l -4.5508,10.379 -18.309,12.176 c -0.26953,0.17969 -0.51562,0.38672 -0.73438,0.62109 l -10.816,11.531 c -0.0156,0.01563 -0.0312,0.03516 -0.043,0.05469 l -7.1758,7.8945 c -0.13672,0.14844 -0.25781,0.30469 -0.37109,0.47266 l -15.074,22.246 c -0.42578,0.62891 -0.67578,1.3633 -0.71875,2.1211 l -0.67969,11.562 -1.1719,3.0078 c -0.28125,0.71094 -0.36328,1.4844 -0.23828,2.2422 l 0.62109,3.707 -1.1797,12.512 -7,4.6602 c -1.0859,0.72266 -1.7773,1.9102 -1.8711,3.2148 l -0.71094,10.02 c -0.0117,0.19141 -0.0117,0.38672 0,0.57812 l 0.71094,10.809 c 0.043,0.65234 0.23828,1.2891 0.57031,1.8594 l 7.1836,12.238 c 0.18359,0.30859 0.40234,0.59766 0.65625,0.85156 l 9.8984,9.8242 1.1719,5.9141 c 0.0742,0.37891 0.19922,0.74219 0.37109,1.0859 l 4.3438,8.5938 c 0.25781,0.52344 0.625,0.98438 1.0703,1.3594 l 28.734,23.754 c 1.3867,1.1445 3.3438,1.2852 4.8789,0.35156 l 11.93,-7.2734 h 14.055 l 10.195,2.6992 c 0.85938,0.22266 1.7656,0.17188 2.5938,-0.15234 l 36.355,-13.957 6.1797,0.94141 5.457,9.7344 c 0.3125,0.54688 0.74219,1.0195 1.2578,1.3789 l 5.043,3.5547 c 0.78516,0.55078 1.7344,0.81641 2.6914,0.75391 l 19.621,-1.2031 1.6719,5.4922 -0.66797,13.441 -1.2344,8.6719 -5.0312,6.2812 c -1.2734,1.582 -1.2422,3.8477 0.0781,5.3906 l 21.129,24.676 12.512,29.148 0.60156,3.0078 2.0703,14.656 v 6.8125 l -7.582,8.8398 c -0.40625,0.47266 -0.69922,1.0352 -0.86328,1.6406 l -3.5547,12.938 c -0.16406,0.59766 -0.19531,1.2266 -0.0859,1.8359 l 2.8438,16.484 c 0.0664,0.42187 0.19922,0.83203 0.39062,1.2148 l 16.977,33.172 3.457,21.59 c 0.0664,0.44141 0.20312,0.86328 0.40234,1.2578 l 19.188,37.594 1.2227,4.9531 0.69141,9.0352 c 0.10547,1.4336 0.93359,2.7188 2.1953,3.4023 l 7.8867,4.2539 c 1.1641,0.63281 2.5586,0.67969 3.7617,0.13281 l 14.656,-6.6719 13.938,1.957 c 0.51563,0.0742 1.043,0.0508 1.5508,-0.0664 l 12.152,-2.8438 c 0.57422,-0.13281 1.1133,-0.38672 1.5859,-0.74219 l 29.434,-22.258 c 0.19922,-0.15234 0.38672,-0.32031 0.55859,-0.50391 l 7.8945,-8.6094 c 0.45703,-0.49219 0.78516,-1.0898 0.96484,-1.7383 l 4.3398,-15.77 c 0.22656,-0.81641 0.19922,-1.6836 -0.0742,-2.4844 l 19.477,-10.039 c 1.4062,-0.72656 2.2891,-2.1719 2.2891,-3.7539 v -15.781 c 0,-0.42188 -0.0625,-0.84375 -0.1875,-1.2461 l -2.7109,-8.7422 1.1367,-0.92969 5.5117,-3.3984 c 0.33203,-0.20703 0.63281,-0.45703 0.89844,-0.74609 l 8.0391,-8.7695 19.348,-8.9609 c 0.86719,-0.39844 1.5703,-1.082 2,-1.9336 l 5.7656,-11.527 c 0.37891,-0.76562 0.51562,-1.6289 0.39453,-2.4727 l -1.2031,-8.5664 1.375,-2.3594 c 0.38281,-0.64844 0.58984,-1.3828 0.59375,-2.1328 v -11.398 l 1.8594,-5.0547 c 0.80859,-2.1836 -0.30859,-4.6133 -2.4961,-5.4219 l -3.1289,-1.1484 -0.54688,-12.898 1.8945,-4.9414 c 0.46875,-1.2305 0.33984,-2.6094 -0.35156,-3.7305 l -4.5703,-7.3828 8.082,-17.457 36.871,-39.668 c 0.19531,-0.21484 0.36719,-0.44531 0.51172,-0.69141 l 30.934,-51.055 c 0.51172,-0.85156 0.71094,-1.8516 0.55859,-2.832 l -2.9219,-18.629 c -0.19922,-1.2656 -0.96094,-2.3711 -2.0742,-3.0078 -1.1133,-0.63672 -2.4531,-0.73047 -3.6445,-0.26172 l -7.0352,2.7773 -20.199,6.2773 -8.9375,0.59375 -5.0312,-2.9531 c 1.3672,-1.5625 1.3945,-3.8867 0.0664,-5.4805 l -15.074,-17.992 c -0.39062,-0.47266 -0.87891,-0.85156 -1.4297,-1.1172 l -11.059,-5.207 -11.574,-19.633 c -0.41016,-0.69141 -1.0078,-1.2539 -1.7266,-1.6172 l -6.4844,-3.2695 -1.2383,-16.32 c -0.0781,-1.0664 -0.55859,-2.0625 -1.3438,-2.7891 l -8.6641,-7.9961 -4.6914,-10.719 c -0.13281,-0.29297 -0.29687,-0.57422 -0.49219,-0.82812 l -20.66,-27.706996 -9.1875,-16.34 c -0.96484,-1.7188 -2.9883,-2.5391 -4.8789,-1.9805 l -6.2461,1.8594 -38.105,-6.1562 -11.781,-4.8672 c -1.1328,-0.46875 -2.4141,-0.42188 -3.5078,0.12891 l -11.441,5.7656 c -0.98828,0.49219 -1.7422,1.3516 -2.1016,2.3945 l -1.7695,5.1953 -2.3086,1.6523 -15.598,-3.6211 -9.1445,-9.7891 c -0.88672,-0.94922 -2.1602,-1.4375 -3.457,-1.3242 l -6.8555,0.61328 -12.316,-5.6523 2.5469,-5.4609 c 0.63281,-1.3555 0.5,-2.9453 -0.34766,-4.1758 l -6.4766,-9.3867 c -0.78125,-1.1523 -2.0859,-1.8438 -3.4766,-1.8477 z"
       id="path73"
       style="fill:#008080" />
    <path
       d="m 567.64,363.86 -5.0859,10.191 -1.7266,6.4648 -3.9727,-1.6523 -3.9453,11.082 -1.7969,1.5195 -2.1406,2.1328 -2.5078,1.2148 -0.88281,1.2891 h -0.21875 l -13.41,4.7578 -5.5781,11.059 0.38281,17.871 -5.6562,5.3047 -4.7695,9.5391 0.84375,20.398 10.16,7.4453 15.949,-5.1406 0.78516,-1.5508 22.062,-42.754 2.4492,-8.7422 3.1289,-4.5469 0.48047,-4.1914 3.9492,-4.8555 -0.36328,-20.41 z"
       id="path75"
       style="fill:#008080" />
  </g>
</svg>
